<?xml version="1.0"?>
<svg xmlns="http://www.w3.org/2000/svg" xmlns:xlink="http://www.w3.org/1999/xlink" xmlns:svgjs="http://svgjs.com/svgjs" version="1.1" width="512" height="512" x="0" y="0" viewBox="0 0 512 512" style="enable-background:new 0 0 512 512" xml:space="preserve" class=""><g><g xmlns="http://www.w3.org/2000/svg" id="Outline"><path d="m48 496h248c17.665-.02 31.98-14.335 32-32h16c17.665-.02 31.98-14.335 32-32v-64h-16v64c-.01 8.832-7.168 15.99-16 16h-16v-304c0-2.122-.843-4.157-2.343-5.657l-72-72c-1.5-1.5-3.535-2.343-5.657-2.343h-184v-16c.01-8.832 7.168-15.99 16-16h264c8.832.01 15.99 7.168 16 16v304h16v-304c-.02-17.665-14.335-31.98-32-32h-264c-17.665.02-31.98 14.335-32 32v16c-17.665.02-31.98 14.335-32 32v24h16v-24c.01-8.832 7.168-15.99 16-16h192v40c.02 17.665 14.335 31.98 32 32h40v312c-.01 8.832-7.168 15.99-16 16h-248c-8.832-.01-15.99-7.168-16-16v-328h-16v328c.02 17.665 14.335 31.98 32 32zm224-360c-8.832-.01-15.99-7.168-16-16v-28.687l44.687 44.687zm216 287.998v-191.998h-16v80h-32v-160h32v64h16v-80c0-17.673-14.327-32-32-32s-32 14.327-32 32h-8c-13.249.015-23.985 10.751-24 24v104h16v-104c.005-4.416 3.584-7.995 8-8h8v272c0 1.12.271 2.292.65 3.164l23.35 54.478v14.358h16v-14.358l23.35-54.485c.437-1.091.65-2.128.65-3.159zm-32 35.693-11.868-27.691h23.736zm16-131.691v88h-32v-88zm-32-192c0-8.837 7.163-16 16-16s16 7.163 16 16zm-224-8h-112v-16h112zm-128-16v16h-32v-16zm-32 40h160v16h-160zm0 40h232v16h-232zm184 56v-16h48v16zm-184-16h168v16h-168zm0 40h232v16h-232zm64 56v-16h168v16zm-64-16h48v16h-48zm0 40h232v16h-232zm0 40h232v16h-232zm168 56v-16h64v16zm-168-16h152v16h-152z" fill="#ffffff" data-original="#000000" style="" class=""/></g></g></svg>
