<?xml version="1.0"?>
<svg xmlns="http://www.w3.org/2000/svg" xmlns:xlink="http://www.w3.org/1999/xlink" xmlns:svgjs="http://svgjs.com/svgjs" version="1.1" width="512" height="512" x="0" y="0" viewBox="0 0 480 480" style="enable-background:new 0 0 512 512" xml:space="preserve" class=""><g><path xmlns="http://www.w3.org/2000/svg" d="m344 480c30.914062-.035156 55.964844-25.085938 56-56v-368c-.035156-30.914062-25.085938-55.9648438-56-56h-288c-30.914062.0351562-55.9648438 25.085938-56 56v368c.0351562 30.914062 25.085938 55.964844 56 56zm-328-424c.027344-22.082031 17.917969-39.972656 40-40h288c22.082031.027344 39.972656 17.917969 40 40v328.886719c-10.503906-10.800781-24.933594-16.890625-40-16.886719h-288c-15.066406-.003906-29.496094 6.085938-40 16.886719zm0 368c.027344-22.082031 17.917969-39.972656 40-40h288c22.089844 0 40 17.910156 40 40s-17.910156 40-40 40h-288c-22.082031-.027344-39.972656-17.917969-40-40zm0 0" fill="#ffffff" data-original="#000000" style=""/><path xmlns="http://www.w3.org/2000/svg" d="m296 448h64c4.417969 0 8-3.582031 8-8v-32c0-4.417969-3.582031-8-8-8h-64c-4.417969 0-8 3.582031-8 8v32c0 4.417969 3.582031 8 8 8zm8-32h48v16h-48zm0 0" fill="#ffffff" data-original="#000000" style=""/><path xmlns="http://www.w3.org/2000/svg" d="m200.800781 443.574219c1.359375 2.726562 4.152344 4.441406 7.199219 4.425781h48c3.046875.015625 5.839844-1.699219 7.199219-4.425781l8-16c.539062-1.113281.8125-2.335938.800781-3.574219v-16c0-4.417969-3.582031-8-8-8h-64c-4.417969 0-8 3.582031-8 8v16c0 1.242188.285156 2.464844.839844 3.574219zm7.199219-27.574219h48v6.113281l-4.945312 9.886719h-38.109376l-4.945312-9.886719zm0 0" fill="#ffffff" data-original="#000000" style=""/><path xmlns="http://www.w3.org/2000/svg" d="m80 424c0-13.253906-10.746094-24-24-24s-24 10.746094-24 24 10.746094 24 24 24 24-10.746094 24-24zm-32 0c0-4.417969 3.582031-8 8-8s8 3.582031 8 8-3.582031 8-8 8-8-3.582031-8-8zm0 0" fill="#ffffff" data-original="#000000" style=""/><path xmlns="http://www.w3.org/2000/svg" d="m160 416h16v16h-16zm0 0" fill="#ffffff" data-original="#000000" style=""/><path xmlns="http://www.w3.org/2000/svg" d="m128 416h16v16h-16zm0 0" fill="#ffffff" data-original="#000000" style=""/><path xmlns="http://www.w3.org/2000/svg" d="m96 416h16v16h-16zm0 0" fill="#ffffff" data-original="#000000" style=""/></g></svg>
